HIERARCHY
ROOT Hip
{
	OFFSET 0 1.131 0.0052
	CHANNELS 6 Xposition Yposition Zposition Xrotation Yrotation Zrotation
	JOINT Abdomen
	{
		OFFSET 0 -0.047353 -0.05
		CHANNELS 3 Xrotation Zrotation Yrotation
		JOINT Chest
		{
			OFFSET 0 0.132153 0.007439
			CHANNELS 3 Xrotation Zrotation Yrotation
			JOINT Neck
			{
				OFFSET 0 0.3078 0.006161
				CHANNELS 3 Xrotation Zrotation Yrotation
				JOINT Head_comp
				{
					OFFSET 0 0.0884 0.013
					CHANNELS 3 Xrotation Yrotation Zrotation
					End Site
					{
						OFFSET -0 0.156 0.0624
					}
				}
			}
			JOINT Left_Collar
			{
				OFFSET 0.02282 0.250342 0.017193
				CHANNELS 2 Yrotation Zrotation
				JOINT Left_Shoulder
				{
					OFFSET 0.15421 0 0
					CHANNELS 3 Xrotation Yrotation Zrotation
					JOINT Left_Forearm
					{
						OFFSET 0.265212 0 0
						CHANNELS 2 Yrotation Xrotation
						JOINT Left_Hand
						{
							OFFSET 0.27571 0 0
							CHANNELS 2 Zrotation Yrotation
							JOINT L1ProxPhalanx
							{
								OFFSET 0.014142 0.001733 0.014142
								CHANNELS 3 Yrotation Zrotation Xrotation
								JOINT L1MidPhalanx
								{
									OFFSET 0.04 0 0
									CHANNELS 1 Zrotation
									JOINT L1DistPhalanx
									{
										OFFSET 0.035 0 0
										CHANNELS 1 Zrotation
										End Site
										{
											OFFSET 0.029 -0 -0
										}
									}
								}
							}
							JOINT L2ProxPhalanx
							{
								OFFSET 0.0821037 0.001578 0.0219996
								CHANNELS 2 Yrotation Zrotation
								JOINT L2MidPhalanx
								{
									OFFSET 0.04 0 0
									CHANNELS 1 Zrotation
									JOINT L2DistPhalanx
									{
										OFFSET 0.028 0 0
										CHANNELS 1 Zrotation
										End Site
										{
											OFFSET 0.02 -0 -0
										}
									}
								}
							}
							JOINT L3ProxPhalanx
							{
								OFFSET 0.083 0 0
								CHANNELS 2 Yrotation Zrotation
								JOINT L3MidPhalanx
								{
									OFFSET 0.053 0 0
									CHANNELS 1 Zrotation
									JOINT L3DistPhalanx
									{
										OFFSET 0.03 0 0
										CHANNELS 1 Zrotation
										End Site
										{
											OFFSET 0.023 -0 -0
										}
									}
								}
							}
							JOINT L4ProxPhalanx
							{
								OFFSET 0.077274 -0.000761 -0.0207055
								CHANNELS 2 Yrotation Zrotation
								JOINT L4MidPhalanx
								{
									OFFSET 0.05 0 0
									CHANNELS 1 Zrotation
									JOINT L4DistPhalanx
									{
										OFFSET 0.03 0 0
										CHANNELS 1 Zrotation
										End Site
										{
											OFFSET 0.023 -0 -0
										}
									}
								}
							}
							JOINT L5ProxPhalanx
							{
								OFFSET 0.0675499 -0.001644 -0.039
								CHANNELS 2 Yrotation Zrotation
								JOINT L5MidPhalanx
								{
									OFFSET 0.04 0 0
									CHANNELS 1 Zrotation
									JOINT L5DistPhalanx
									{
										OFFSET 0.021 0 0
										CHANNELS 1 Zrotation
										End Site
										{
											OFFSET 0.022 -0 -0
										}
									}
								}
							}
						}
					}
				}
			}
			JOINT Right_Collar
			{
				OFFSET -0.02282 0.250342 0.017193
				CHANNELS 2 Yrotation Zrotation
				JOINT Right_Shoulder
				{
					OFFSET -0.15421 0 0
					CHANNELS 3 Xrotation Yrotation Zrotation
					JOINT Right_Forearm
					{
						OFFSET -0.265212 0 0
						CHANNELS 2 Yrotation Xrotation
						JOINT Right_Hand
						{
							OFFSET -0.27571 3e-006 0
							CHANNELS 2 Zrotation Yrotation
							JOINT R1ProxPhalanx
							{
								OFFSET -0.014142 0.001733 0.014142
								CHANNELS 3 Yrotation Zrotation Xrotation
								JOINT R1MidPhalanx
								{
									OFFSET -0.04 0 0
									CHANNELS 1 Zrotation
									JOINT R1DistPhalanx
									{
										OFFSET -0.035 0 0
										CHANNELS 1 Zrotation
										End Site
										{
											OFFSET -0.029 -0 -0
										}
									}
								}
							}
							JOINT R2ProxPhalanx
							{
								OFFSET -0.0821037 0.001578 0.0219996
								CHANNELS 2 Yrotation Zrotation
								JOINT R2MidPhalanx
								{
									OFFSET -0.04 0 0
									CHANNELS 1 Zrotation
									JOINT R2DistPhalanx
									{
										OFFSET -0.028 0 0
										CHANNELS 1 Zrotation
										End Site
										{
											OFFSET -0.02 -0 -0
										}
									}
								}
							}
							JOINT R3ProxPhalanx
							{
								OFFSET -0.083 0 0
								CHANNELS 2 Yrotation Zrotation
								JOINT R3MidPhalanx
								{
									OFFSET -0.053 0 0
									CHANNELS 1 Zrotation
									JOINT R3DistPhalanx
									{
										OFFSET -0.03 0 0
										CHANNELS 1 Zrotation
										End Site
										{
											OFFSET -0.023 -0 -0
										}
									}
								}
							}
							JOINT R4ProxPhalanx
							{
								OFFSET -0.077274 -0.000761 -0.0207055
								CHANNELS 2 Yrotation Zrotation
								JOINT R4MidPhalanx
								{
									OFFSET -0.05 0 0
									CHANNELS 1 Zrotation
									JOINT R4DistPhalanx
									{
										OFFSET -0.03 0 0
										CHANNELS 1 Zrotation
										End Site
										{
											OFFSET -0.023 -0 -0
										}
									}
								}
							}
							JOINT R5ProxPhalanx
							{
								OFFSET -0.0675499 -0.001644 -0.039
								CHANNELS 2 Yrotation Zrotation
								JOINT R5MidPhalanx
								{
									OFFSET -0.04 0 0
									CHANNELS 1 Zrotation
									JOINT R5DistPhalanx
									{
										OFFSET -0.021 0 0
										CHANNELS 1 Zrotation
										End Site
										{
											OFFSET -0.022 -0 -0
										}
									}
								}
							}
						}
					}
				}
			}
		}
	}
	JOINT Left_Thigh
	{
		OFFSET 0.1118 -0.1612 -0.0442
		CHANNELS 3 Xrotation Zrotation Yrotation
		JOINT Left_Shin
		{
			OFFSET 0 -0.477856 0
			CHANNELS 1 Xrotation
			JOINT Left_Foot
			{
				OFFSET 0 -0.431952 0
				CHANNELS 2 Xrotation Zrotation
				JOINT Left_Toe
				{
					OFFSET 0 -0.0442 0.119
					CHANNELS 1 Xrotation
					End Site
					{
						OFFSET -0 -0 0.07
					}
				}
			}
		}
	}
	JOINT Right_Thigh
	{
		OFFSET -0.1118 -0.1612 -0.0442
		CHANNELS 3 Xrotation Zrotation Yrotation
		JOINT Right_Shin
		{
			OFFSET 0 -0.477856 0
			CHANNELS 1 Xrotation
			JOINT Right_Foot
			{
				OFFSET 0 -0.431952 0
				CHANNELS 2 Xrotation Zrotation
				JOINT Right_Toe
				{
					OFFSET 0 -0.0442 0.119
					CHANNELS 1 Xrotation
					End Site
					{
						OFFSET -0 -0 0.07
					}
				}
			}
		}
	}
}
MOTION
Frames: 5
Frame Time: 0.009975
-0.0950295 -0.0601474 0.0401722 1.82731e-012 5.41419e-009 -5.11019e-006 0 -0 0 0 -0 0 0 -0 0 -0.712283 0.27253 -1.36474e-011 -3.68612 -26.8137 -1.7861 -38.8219 -47.0066 -59.6746 10.7023 12.9364 9.67522 -76.9589 18.5066 79.8448 -17.8081 -22.3749 7.26526 -2.64515 -16.0044 -6.73483 5.68184 -5.62122 -7.78532 -3.67077 3.06904 -16.867 5.35727 -2.59857 2.07234 -41.9963 31.8915 4.12177 3.4744 24.2755 -9.38859 14.5952 35.1115 62.2055 3.00443 2.33219 -0.990116 68.23 4.39382 81.7042 17.2826 12.7026 1.51185 4.42735 15.0528 9.45841 -3.64649 10.9815 9.51961 10.6845 -2.74132 22.233 4.82287 1.21984 -4.47719 36.4688 -21.0574 -3.46566 0.0624286 -1.05619 -0.00115042 0.0240216 -0.0864397 1.05619 0 0.0738354 -1.05619 -0.00136068 2.41484e-006 -0.0738252 1.05619 0 
-0.0951259 -0.0601463 0.0405992 1.78355e-012 7.76828e-009 -5.11018e-006 0 -0 0 0 -0 0 0 -0 0 -0.712309 0.272793 -1.64294e-011 -3.61538 -26.3803 -0.892834 -38.1782 -47.0322 -60.8097 10.4969 12.6882 9.48954 -75.8904 17.2174 79.7821 -17.4612 -22.1054 6.89555 -3.01253 -16.4126 -6.91508 5.51348 -6.12355 -8.06344 -4.05441 3.22757 -17.0041 4.19765 -3.04389 2.47856 -41.3692 29.9654 3.01607 3.40725 23.88 -8.45903 13.8817 35.4282 63.427 2.94635 2.28711 -0.970978 67.4244 5.02191 81.4912 17.5209 13.1214 1.82055 4.79413 15.4244 9.72911 -3.5495 11.2862 10.1339 11.1483 -2.89799 22.4583 5.55119 1.81946 -4.56639 36.2099 -19.5623 -2.57502 0.0893213 -1.05012 -0.00163662 0.0240216 -0.113328 1.05012 0 0.100728 -1.05012 -0.00184567 2.41484e-006 -0.100713 1.05012 0 
-0.0952329 -0.0601452 0.0410435 -1.77764e-012 1.0224e-008 -5.11017e-006 0 -0 0 0 -0 0 0 -0 0 -0.712337 0.273088 -1.92569e-011 -3.54156 -25.927 0.0201032 -37.5087 -47.0767 -61.969 10.2825 12.4291 9.29577 -74.8218 15.9282 79.7194 -17.1142 -21.836 6.52585 -3.37991 -16.8208 -7.09532 5.34512 -6.62588 -8.34157 -4.43804 3.3861 -17.1413 3.03802 -3.48921 2.88477 -40.7421 28.0393 1.91037 3.33722 23.4677 -7.48946 13.1763 35.785 64.6561 2.8858 2.24011 -0.951024 66.6187 5.65 81.2782 17.7591 13.5401 2.12926 5.1609 15.796 9.99981 -3.45251 11.5909 10.7482 11.6122 -3.05467 22.6837 6.27952 2.41908 -4.6556 35.9511 -18.0672 -1.68438 0.117305 -1.04338 -0.00213563 0.0240216 -0.141307 1.04339 0 0.128712 -1.04338 -0.00234334 8.6658e-007 -0.128692 1.04339 0 
-0.0953496 -0.0601442 0.0415038 6.66393e-012 1.27737e-008 -5.11015e-006 0 -0 0 0 -0 0 0 -0 0 -0.712365 0.273415 -2.21096e-011 -3.46484 -25.4551 0.948665 -36.8175 -47.1434 -63.1432 10.0598 12.1598 9.09441 -73.7532 14.6391 79.6567 -16.7673 -21.5665 6.15614 -3.7473 -17.229 -7.27556 5.17676 -7.1282 -8.6197 -4.82168 3.54462 -17.2784 1.8784 -3.93454 3.29098 -40.1149 26.1132 0.804669 3.26451 23.0399 -6.48257 12.4841 36.1818 65.8851 2.82293 2.1913 -0.930303 65.813 6.27808 81.0652 17.9974 13.9589 2.43796 5.52767 16.1677 10.2705 -3.35552 11.8955 11.3625 12.0761 -3.21134 22.909 7.00784 3.0187 -4.7448 35.6922 -16.5721 -0.793739 0.146297 -1.03603 -0.00264473 0.0240216 -0.170295 1.03604 0 0.157703 -1.03603 -0.00285098 8.36698e-007 -0.157679 1.03604 0 
-0.0954752 -0.0601434 0.0419789 -3.58702e-012 1.54099e-008 -5.11013e-006 0 -0 0 0 -0 0 0 -0 0 -0.712396 0.273769 -2.50005e-011 -3.38541 -24.9658 1.88953 -36.1079 -47.235 -64.3245 9.8292 11.8811 8.88592 -72.6847 13.3499 79.594 -16.4203 -21.2971 5.78644 -4.11468 -17.6372 -7.45581 5.0084 -7.63053 -8.89782 -5.20531 3.70315 -17.4155 0.718774 -4.37986 3.6972 -39.4878 24.1871 -0.301031 3.18928 22.5974 -5.44084 11.8095 36.6182 67.1073 2.75787 2.1408 -0.908864 65.0073 6.90617 80.8523 18.2357 14.3777 2.74666 5.89445 16.5393 10.5412 -3.25853 12.2002 11.9768 12.54 -3.36802 23.1343 7.73616 3.61832 -4.834 35.4333 -15.077 0.0969022 0.17622 -1.02811 -0.0031614 0.0240216 -0.200213 1.02812 0 0.187627 -1.02811 -0.00336607 1.70755e-006 -0.187598 1.02812 0 
